<svg xmlns="http://www.w3.org/2000/svg" width="40" height="40" viewBox="0 0 40 40">
  <g fill="none" fill-rule="evenodd">
    <path fill="#344597" fill-opacity=".995" d="M20,40 C31.045695,40 40,31.045695 40,20 C40,8.954305 31.045695,0 20,0 C8.954305,0 0,8.954305 0,20 C0,31.045695 8.954305,40 20,40 Z"/>
    <path fill="#FFFFFF" d="M0,0.210212766 L0,19.9442553 L22.9423945,19.9442553 L22.9423945,0.210212766 L0,0.210212766 Z M19.6795596,3.61446809 L19.6795596,0.848510638 L22.309156,0.848510638 L22.309156,8.9512766 C22.1067982,8.28425532 21.7772018,7.4593617 21.2859725,6.91234043 L22.2794037,6.91234043 L22.2794037,6.80595745 L21.184055,6.80595745 C20.885055,6.51042553 20.5305596,6.31829787 20.1123394,6.31829787 C19.9585138,6.31829787 19.8148165,6.34574468 19.6795596,6.39276596 L19.6795596,3.72085106 L22.2794037,3.72085106 L22.2794037,3.61446809 L19.6795596,3.61446809 Z M19.6795596,6.91234043 L20.6474587,6.91234043 C21.482,7.45234043 21.9763945,9.15553191 22.1371835,9.99744681 L19.6797706,9.99744681 L19.6795596,6.91234043 L19.6795596,6.91234043 Z M19.7878073,6.80595745 C19.8901468,6.76574468 19.9983945,6.74382979 20.1121284,6.74382979 C20.2267064,6.74382979 20.3362202,6.76574468 20.4410917,6.80595745 L19.7878073,6.80595745 Z M16.514422,0.848510638 L19.574055,0.848510638 L19.574055,3.61446809 L16.514422,3.61446809 L16.514422,0.848510638 Z M16.514422,3.72085106 L19.574055,3.72085106 L19.574055,6.43510638 C19.3837248,6.52 19.2119633,6.64765957 19.0581376,6.80595745 L16.514422,6.80595745 L16.514422,3.72085106 Z M16.514422,6.91234043 L18.9604404,6.91234043 C18.1432018,7.86382979 17.8555963,9.65659574 17.8070642,9.99744681 L16.514422,9.99744681 L16.514422,6.91234043 Z M17.7918716,10.1038298 C17.6827798,10.8910638 17.2865046,12.5695745 16.514211,13.1814894 L16.514211,10.1038298 L17.7918716,10.1038298 Z M13.3492844,9.66234043 C13.3781927,9.78404255 13.4020367,9.89702128 13.4214495,9.99744681 L13.3492844,9.99744681 L13.3492844,9.66234043 Z M13.3492844,10.1038298 L13.4408624,10.1038298 C13.4417064,10.1076596 13.4425505,10.1121277 13.4431835,10.1159574 L13.4442385,10.1159574 C13.4693486,10.2623404 13.8097064,12.1629787 14.6849725,13.1889362 L13.3497064,13.1889362 L13.3492844,10.1038298 L13.3492844,10.1038298 Z M13.8704771,10.1038298 L16.4087064,10.1038298 L16.4087064,13.1889362 L15.293945,13.1889362 C14.4883119,12.5848936 14.0156514,10.9002128 13.8704771,10.1038298 Z M16.3420275,13.2953191 C16.2065596,13.3689362 16.0613853,13.4106383 15.9050275,13.4106383 C15.7482477,13.4106383 15.6003303,13.3689362 15.4612752,13.2953191 L16.3420275,13.2953191 Z M13.3492844,0.848510638 L16.4089174,0.848510638 L16.4089174,3.61446809 L13.3492844,3.61446809 L13.3492844,0.848510638 L13.3492844,0.848510638 Z M13.3492844,3.72085106 L16.4089174,3.72085106 L16.4089174,6.80595745 L13.3492844,6.80595745 L13.3492844,3.72085106 L13.3492844,3.72085106 Z M16.4089174,6.91234043 L16.4089174,9.99744681 L13.8502202,9.99744681 C13.8143486,9.8006383 13.662844,9.03553191 13.3492844,8.25212766 L13.3492844,6.91234043 L16.4089174,6.91234043 Z M13.2437798,8.00361702 C13.065055,7.60361702 12.8428624,7.21553191 12.5704495,6.91234043 L13.2437798,6.91234043 L13.2437798,8.00361702 Z M10.1841468,0.848510638 L13.2437798,0.848510638 L13.2437798,3.61446809 L10.1841468,3.61446809 L10.1841468,0.848510638 Z M10.1841468,3.72085106 L13.2437798,3.72085106 L13.2437798,6.80595745 L12.4683211,6.80595745 C12.1693211,6.5106383 11.8148257,6.31829787 11.3963945,6.31829787 C10.9769083,6.31829787 10.6293761,6.51042553 10.3419817,6.80595745 L10.1841468,6.80595745 L10.1841468,3.72085106 L10.1841468,3.72085106 Z M11.7251468,6.80595745 L11.0714404,6.80595745 C11.1742018,6.76574468 11.2824495,6.74382979 11.3963945,6.74382979 C11.5107615,6.74382979 11.6202752,6.76574468 11.7251468,6.80595745 Z M10.2444954,6.91234043 C10.2240275,6.93595745 10.2039817,6.95957447 10.1843578,6.98425532 L10.1843578,6.91234043 L10.2444954,6.91234043 Z M7.01900917,0.848510638 L10.0786422,0.848510638 L10.0786422,3.61446809 L7.01900917,3.61446809 L7.01900917,0.848510638 Z M7.01900917,3.72085106 L10.0786422,3.72085106 L10.0786422,6.80595745 L7.01900917,6.80595745 L7.01900917,3.72085106 Z M7.01900917,6.91234043 L10.0786422,6.91234043 L10.0786422,7.12510638 C9.38737615,8.10957447 9.13585321,9.68042553 9.09090826,9.99744681 L7.01900917,9.99744681 L7.01900917,6.91234043 Z M7.01900917,10.1038298 L9.0757156,10.1038298 C8.96704587,10.8944681 8.56844954,12.583617 7.78877064,13.1889362 L7.01900917,13.1889362 L7.01900917,10.1038298 Z M7.6267156,13.2953191 C7.4910367,13.3689362 7.34565138,13.4106383 7.18908257,13.4106383 C7.13105505,13.4106383 7.0747156,13.4034043 7.01900917,13.3925532 L7.01900917,13.2953191 L7.6267156,13.2953191 L7.6267156,13.2953191 Z M5.13469725,9.99744681 C5.07666972,9.67893617 4.71521101,7.86978723 3.8547156,6.91234043 L6.9137156,6.91234043 L6.9137156,9.99744681 L5.13469725,9.99744681 Z M4.70550459,9.99744681 L3.85408257,9.99744681 L3.85408257,7.62361702 C4.3079633,8.36574468 4.59134862,9.39893617 4.70550459,9.99744681 Z M3.85387156,10.1038298 L4.72491743,10.1038298 C4.72555046,10.1076596 4.7263945,10.1121277 4.72702752,10.1159574 L4.72808257,10.1159574 C4.75298165,10.2623404 5.09376147,12.1629787 5.96881651,13.1889362 L3.85387156,13.1889362 L3.85387156,10.1038298 Z M5.15453211,10.1038298 L6.91350459,10.1038298 L6.91350459,13.1889362 L6.578,13.1889362 C5.77215596,12.5848936 5.29949541,10.9002128 5.15453211,10.1038298 Z M6.91350459,13.2953191 L6.91350459,13.3657447 C6.85611009,13.3474468 6.79977064,13.3242553 6.74511927,13.2953191 L6.91350459,13.2953191 Z M3.85387156,0.848510638 L6.91350459,0.848510638 L6.91350459,3.61446809 L3.85387156,3.61446809 L3.85387156,0.848510638 L3.85387156,0.848510638 Z M3.85387156,3.72085106 L6.91350459,3.72085106 L6.91350459,6.80595745 L3.85387156,6.80595745 L3.85387156,3.72085106 L3.85387156,3.72085106 Z M3.74836697,0.848510638 L3.74836697,3.61446809 L0.662568807,3.61446809 L0.662568807,3.72085106 L3.74836697,3.72085106 L3.74836697,6.80170213 C3.45021101,6.5087234 3.09698165,6.31829787 2.68044954,6.31829787 C2.2609633,6.31829787 1.9136422,6.51042553 1.6260367,6.80595745 L0.662568807,6.80595745 L0.662568807,6.91234043 L1.52855046,6.91234043 C1.09640367,7.41574468 0.811963303,8.15382979 0.633027523,8.78957447 L0.633027523,0.848510638 L3.74836697,0.848510638 Z M3.00920183,6.80595745 L2.35591743,6.80595745 C2.45846789,6.76574468 2.5667156,6.74382979 2.68044954,6.74382979 C2.79502752,6.74382979 2.90433028,6.76574468 3.00920183,6.80595745 Z M3.74836697,13.1889362 L0.662568807,13.1889362 L0.662568807,13.2953191 L3.74836697,13.2953191 L3.74836697,16.3804255 L0.662568807,16.3804255 L0.662568807,16.4868085 L3.74836697,16.4868085 L3.74836697,19.3059574 L0.633027523,19.3059574 L0.633027523,10.0874468 L0.662779817,10.0914894 L0.662779817,10.1042553 L0.760688073,10.1042553 L0.786431193,10.1078723 C0.786642202,10.1065957 0.786853211,10.1053191 0.786853211,10.1042553 L3.74857798,10.1042553 L3.74836697,13.1889362 L3.74836697,13.1889362 Z M0.801623853,9.99744681 C0.924642202,9.16085106 1.34518349,7.45319149 2.15482569,6.91234043 L3.21577982,6.91234043 C3.41222936,7.0393617 3.58947706,7.23085106 3.74836697,7.46042553 L3.74836697,9.99744681 L0.801623853,9.99744681 Z M6.91350459,19.3059574 L3.85387156,19.3059574 L3.85387156,16.4868085 L6.91350459,16.4868085 L6.91350459,19.3059574 Z M3.85387156,16.3804255 L3.85387156,13.2953191 L6.06355963,13.2953191 C6.30685321,13.5512766 6.58897248,13.7368085 6.91350459,13.8055319 L6.91350459,16.3804255 L3.85387156,16.3804255 Z M10.0786422,19.3059574 L7.01900917,19.3059574 L7.01900917,16.4868085 L10.0786422,16.4868085 L10.0786422,19.3059574 Z M10.0786422,16.3804255 L7.01900917,16.3804255 L7.01900917,13.8251064 C7.07450459,13.8321277 7.13105505,13.8361702 7.18908257,13.8361702 C7.6336789,13.8361702 7.99788073,13.6212766 8.29477064,13.2953191 L10.0786422,13.2953191 L10.0786422,16.3804255 Z M10.0786422,13.1889362 L8.3857156,13.1889362 C9.22131193,12.1608511 9.48233028,10.2542553 9.5013211,10.107234 L9.50216514,10.107234 C9.50237615,10.1061702 9.50237615,10.1048936 9.50258716,10.1038298 L10.0786422,10.1038298 L10.0786422,13.1889362 L10.0786422,13.1889362 Z M9.51714679,9.99744681 C9.59078899,9.49595745 9.77141284,8.68170213 10.0786422,7.99276596 L10.0786422,9.99744681 L9.51714679,9.99744681 Z M13.2437798,19.3059574 L10.1841468,19.3059574 L10.1841468,16.4868085 L13.2437798,16.4868085 L13.2437798,19.3059574 Z M13.2437798,16.3804255 L10.1841468,16.3804255 L10.1841468,13.2953191 L13.2437798,13.2953191 L13.2437798,16.3804255 Z M13.2437798,13.1889362 L10.1841468,13.1889362 L10.1841468,10.1038298 L13.2437798,10.1038298 L13.2437798,13.1889362 Z M10.1841468,9.99744681 L10.1841468,7.77170213 C10.3715229,7.40531915 10.5987798,7.09340426 10.8701376,6.91234043 L11.9315138,6.91234043 C12.5620092,7.3206383 12.9990092,8.39340426 13.2437798,9.25702128 L13.2437798,9.99744681 L10.1841468,9.99744681 L10.1841468,9.99744681 Z M16.4089174,19.3059574 L13.3492844,19.3059574 L13.3492844,16.4868085 L16.4089174,16.4868085 L16.4089174,19.3059574 Z M13.3492844,16.3804255 L13.3492844,13.2953191 L14.7795046,13.2953191 C15.0894771,13.6212766 15.4612752,13.8361702 15.9048165,13.8361702 C16.0856514,13.8361702 16.2529817,13.7991489 16.4089174,13.7348936 L16.4089174,16.3804255 L13.3492844,16.3804255 Z M19.574055,19.3059574 L16.514422,19.3059574 L16.514422,16.4868085 L19.574055,16.4868085 L19.574055,19.3059574 Z M19.574055,16.3804255 L16.514422,16.3804255 L16.514422,13.687234 C16.697578,13.5929787 16.8621651,13.4578723 17.0107156,13.2953191 L19.574055,13.2953191 L19.574055,16.3804255 Z M19.574055,13.1889362 L17.1016606,13.1889362 C17.9370459,12.1610638 18.1982752,10.2548936 18.2174771,10.107234 L18.2183211,10.107234 C18.2185321,10.1061702 18.2185321,10.1048936 18.2187431,10.1038298 L19.5742661,10.1038298 L19.574055,13.1889362 L19.574055,13.1889362 Z M18.2333028,9.99744681 C18.3556881,9.16531915 18.7728532,7.47148936 19.574055,6.9212766 L19.574055,9.99744681 L18.2333028,9.99744681 Z M19.6795596,19.3059574 L19.6795596,16.4868085 L22.2794037,16.4868085 L22.2794037,16.3804255 L19.6795596,16.3804255 L19.6795596,13.2953191 L22.2794037,13.2953191 L22.2794037,13.1889362 L19.6795596,13.1889362 L19.6795596,10.1038298 L22.1565963,10.1038298 C22.1572294,10.1076596 22.1580734,10.1121277 22.1587064,10.1159574 L22.2285505,10.1038298 L22.2794037,10.1038298 L22.2794037,10.0951064 L22.309156,10.0902128 L22.309156,19.3059574 L19.6795596,19.3059574 Z" transform="translate(9 10)"/>
  </g>
</svg>
